<svg width="844" height="250" viewBox="0 0 844 250" fill="none" xmlns="http://www.w3.org/2000/svg">
<path fill-rule="evenodd" clip-rule="evenodd" d="M120.119 0.0931902C84.1046 1.31892 49.7721 18.8123 27.0439 47.5184C21.4372 54.5999 17.3288 61.0601 13.2132 69.2666C5.45404 84.7382 1.27718 100.154 0.165679 117.422C-0.349424 125.425 0.367985 137.529 1.88146 146.368C9.86793 193.014 44.5627 231.788 90.1853 245.054C97.8048 247.27 105 248.672 112.446 249.391C128.822 250.973 144.778 249.474 160.354 244.889C186.927 237.068 210.367 220.272 226.97 197.155C232.014 190.133 238.03 179.163 241.084 171.419C249.82 149.271 252.102 127.115 248.082 103.476C243.625 77.2704 229.625 51.5437 210.012 33.5166C192.116 17.0679 171.72 6.6792 148.531 2.20204C139.085 0.378177 130.492 -0.259688 120.119 0.0931902ZM137.482 18.3342C159.652 21.2298 179.184 29.9437 195.359 44.1554C215.677 62.0077 228.578 86.5047 231.516 112.817C233.364 129.362 231.806 143.987 226.55 159.447C217.522 186.003 197.919 208.378 172.578 221.052C162.191 226.247 151.185 229.633 138.929 231.402C135.133 231.951 133.765 232.01 124.986 232.01C114.133 232.01 111.266 231.74 102.625 229.899C72.5366 223.49 46.3779 204.035 31.1771 176.762C23.6418 163.242 19.2226 148.257 18.0314 132.186C17.6381 126.878 17.8465 116.149 18.4255 111.896C22.0741 85.1066 34.5168 61.8046 54.5488 44.2464C71.1618 29.685 92.5838 20.3004 113.939 18.2289C115.53 18.0747 117.304 17.9026 117.883 17.8466C120.585 17.5848 134.369 17.9276 137.482 18.3342ZM91.3124 44.8388C86.0792 45.8298 81.4912 50.6588 80.6044 56.1093C80.4221 57.2292 80.1216 58.1823 79.9096 58.3129C77.7708 59.6286 72.3943 64.0892 69.2455 67.1596C49.8847 86.0403 41.386 112.237 45.9393 139C48.1742 152.136 53.7724 164.593 62.2903 175.382C64.9882 178.799 71.303 185.112 74.7917 187.88C83.5219 194.805 93.3575 199.761 103.863 202.527C111.945 204.655 116.281 205.187 125.381 205.164C131.227 205.15 132.968 205.052 136.167 204.558C154.899 201.666 170.559 193.598 183.534 180.155C186.078 177.518 189.467 173.398 191.15 170.896C191.92 169.751 192.201 169.526 192.866 169.526C194.22 169.525 197.111 168.591 198.651 167.658C200.57 166.494 202.027 165.073 203.267 163.153C204.859 160.69 205.224 159.324 205.224 155.842C205.224 152.996 205.175 152.713 204.405 151.105C203.954 150.164 203.214 148.934 202.761 148.371C202.307 147.809 201.936 147.267 201.936 147.168C201.936 147.068 202.228 146.128 202.585 145.077C203.349 142.832 204.379 138.259 204.873 134.921C205.105 133.359 205.219 130.047 205.208 125.185C205.19 116.925 204.807 113.482 203.124 106.478C201.744 100.732 198.757 92.0442 196.931 88.4633L196.421 87.4634L199.844 85.3006C201.726 84.1112 203.326 83.0423 203.398 82.9254C203.47 82.8086 202.499 81.0287 201.24 78.9701C195.833 70.1318 188.936 62.1853 181.431 56.1472C175.795 51.6121 166.537 45.4224 166.026 45.8469C165.867 45.9787 164.625 47.5631 163.267 49.3675L160.796 52.6481L159.859 52.1718C156.195 50.3085 148.959 47.807 143.794 46.6179C134.573 44.4951 121.636 44.0035 113.13 45.4529C110.37 45.9232 104.919 47.2842 103.618 47.8278C102.751 48.1904 102.659 48.1733 101.614 47.4573C97.9903 44.9724 94.8381 44.1712 91.3124 44.8388ZM135.625 54.2586C141.99 55.3333 148.055 57.1495 153.093 59.4902C154.372 60.0846 155.379 60.6828 155.33 60.8196C155.28 60.9562 151.869 66.2178 147.748 72.5117L140.257 83.9551L139.199 83.3467C137.727 82.5015 134.869 81.5202 132.221 80.951C130.464 80.5737 128.855 80.4726 124.723 80.4808C120.034 80.49 119.09 80.5689 116.042 81.2071C114.161 81.601 111.556 82.2786 110.254 82.7131C106.971 83.808 102.047 86.3245 99.0792 88.4233C96.0993 90.5309 91.6025 94.9059 89.4229 97.8179C87.6711 100.158 85.1474 104.34 84.4813 106.007C84.0643 107.05 83.9954 107.097 82.6216 107.258C76.8513 107.937 72.2825 112.859 71.5716 119.162C71.2007 122.452 72.4977 126.574 74.722 129.173C75.9366 130.592 78.1333 132.036 79.9146 132.584L81.337 133.022L81.8116 135.135C85.3918 151.068 98.3104 164.14 114.523 168.235C118.794 169.314 121.865 169.617 126.942 169.46C133.516 169.257 139.396 167.787 145.121 164.915C157.61 158.65 166.033 147.572 168.837 133.718C169.371 131.081 169.445 129.968 169.436 124.659C169.425 117.771 169.088 115.572 167.358 111.107C166.825 109.732 166.367 108.445 166.339 108.248C166.291 107.902 187.82 92.9863 188.403 92.9615C189.026 92.9352 193.136 103.88 194.475 109.133C197.066 119.298 197.244 129.841 194.977 139C193.955 143.13 194.094 142.947 191.993 142.947C184.947 142.947 178.774 149.152 178.789 156.218C178.796 159.823 179.79 162.6 181.865 164.82C182.52 165.52 182.994 166.252 182.919 166.447C182.844 166.642 181.845 167.977 180.699 169.413C166.127 187.672 143.59 197.849 120.988 196.377C115.547 196.022 112.041 195.478 107.287 194.25C101.859 192.848 99.0107 191.769 93.417 188.998C86.1413 185.393 80.3416 181.262 74.757 175.707C63.7333 164.741 56.8641 151.251 54.2978 135.53C53.5309 130.833 53.4491 118.848 54.1544 114.584C57.3237 95.4246 66.384 79.9861 80.8561 69.085L83.8165 66.8551L85.1864 67.9461C87.0316 69.4155 89.8783 70.7433 92.0266 71.1362C97.2292 72.0878 103.304 68.6521 105.832 63.3287C106.532 61.8551 106.803 60.8288 107.051 58.7179L107.369 56.0025L110.127 55.2675C112.563 54.6183 116.279 53.971 119.461 53.641C120.04 53.581 123.177 53.571 126.433 53.6189C130.906 53.6849 133.152 53.8412 135.625 54.2586ZM132.699 90.1748C134.611 90.6385 135.635 91.0053 135.559 91.1998C135.495 91.3661 131.522 97.4232 126.731 104.66L118.019 117.817L124.684 124.485L131.348 131.153L145.136 121.815C153.809 115.941 158.985 112.589 159.091 112.779C159.183 112.945 159.591 114.857 159.997 117.028C160.909 121.908 161.02 127.674 160.276 131.458C158.865 138.628 155.539 144.876 150.373 150.062C145.07 155.385 139.366 158.487 131.928 160.09C128.681 160.79 122.234 160.917 119.198 160.34C111.28 158.836 105.541 155.905 99.9557 150.51C95.9701 146.661 92.7377 141.499 91.0995 136.369C89.9675 132.824 89.9525 133.046 91.3747 132.324C92.064 131.975 93.2852 130.995 94.0889 130.147C96.7743 127.314 98.1058 124.146 98.1095 120.58C98.1134 116.712 96.9414 113.807 94.3285 111.207L92.7816 109.668L93.9676 107.438C98.996 97.9831 107.977 91.5884 118.935 89.6604C120.343 89.4127 122.477 89.317 125.381 89.3712C129.031 89.4396 130.195 89.5672 132.699 90.1748Z" fill="#8F3D38"/>
<path d="M290.812 66.75H307.188C310.812 66.75 314.562 66.9792 318.438 67.4375C322.312 67.8958 325.917 68.9167 329.25 70.5C332.583 72.0417 335.271 74.4375 337.312 77.6875C339.396 80.9375 340.438 85.3542 340.438 90.9375V96.125C340.438 101.792 339.083 106.417 336.375 110C333.708 113.542 330.729 115.917 327.438 117.125V117.625C332.271 119.542 335.938 122.292 338.438 125.875C340.938 129.458 342.188 134.417 342.188 140.75V146.188C342.188 151.979 341.25 156.688 339.375 160.312C337.542 163.896 335.021 166.646 331.812 168.562C328.604 170.479 324.938 171.792 320.812 172.5C316.688 173.167 312.354 173.5 307.812 173.5H290.812V66.75ZM309.812 112.438C314.146 112.438 317.604 111.375 320.188 109.25C322.771 107.083 324.062 103.5 324.062 98.5V94.125C324.062 89.1667 323.021 85.3333 320.938 82.625C318.854 79.9167 315.146 78.5625 309.812 78.5625H307V112.438H309.812ZM311.312 161.688C315.646 161.688 319.083 160.625 321.625 158.5C324.208 156.333 325.5 152.75 325.5 147.75V139.438C325.5 134.438 324.458 130.604 322.375 127.938C320.333 125.229 316.646 123.875 311.312 123.875H307V161.688H311.312ZM354.938 87.4375H370.75V150.75C370.75 154.542 371.333 157.188 372.5 158.688C373.667 160.146 375.375 160.875 377.625 160.875C380.958 160.875 383.854 159.188 386.312 155.812V87.4375H402.125V173.5H390.062L388.5 164.312H388.438C385.979 168.229 383.188 170.917 380.062 172.375C376.979 173.792 373.854 174.5 370.688 174.5C365.688 174.5 361.812 172.75 359.062 169.25C356.312 165.708 354.938 160.417 354.938 153.375V87.4375ZM418.312 59.8125H434.125V173.5H418.312V59.8125ZM450.312 59.8125H466.125V173.5H450.312V59.8125ZM478.938 190.062C483.729 190.729 487.646 189.729 490.688 187.062C493.729 184.438 495.375 180.083 495.625 174L475.25 87.4375H491L500.062 135.062L502.688 151.5H503.188L505 135.062L512.312 87.4375H527.562L509.875 176.688C508.25 184.938 505.75 191.104 502.375 195.188C499 199.271 493.958 201.312 487.25 201.312C484.542 201.312 481.771 200.792 478.938 199.75V190.062ZM554.25 173.5H537.438V66.75H554.25C557.292 66.75 560.417 66.8958 563.625 67.1875C566.833 67.4792 569.917 68.2292 572.875 69.4375C575.875 70.6458 578.562 72.6042 580.938 75.3125C583.312 77.9792 585.188 81.6875 586.562 86.4375C587.979 91.1458 588.688 97.2083 588.688 104.625V135.625C588.688 143.042 587.979 149.125 586.562 153.875C585.188 158.625 583.312 162.354 580.938 165.062C578.562 167.729 575.875 169.667 572.875 170.875C569.917 172.042 566.833 172.771 563.625 173.062C560.417 173.354 557.292 173.5 554.25 173.5ZM553.625 79.0625V161.188H557.125C561.042 161.188 564.042 160.479 566.125 159.062C568.25 157.646 569.708 155.104 570.5 151.438C571.333 147.771 571.75 142.604 571.75 135.938V104.312C571.75 97.6042 571.333 92.4375 570.5 88.8125C569.708 85.1458 568.25 82.6042 566.125 81.1875C564.042 79.7708 561.042 79.0625 557.125 79.0625H553.625ZM600.938 138.25V122C600.938 115.417 601.5 109.958 602.625 105.625C603.75 101.292 605.229 97.8333 607.062 95.25C608.938 92.6667 610.979 90.75 613.188 89.5C615.438 88.25 617.667 87.4375 619.875 87.0625C622.083 86.6458 624.104 86.4375 625.938 86.4375C629.729 86.4375 633.229 87.25 636.438 88.875C639.646 90.4583 642.208 93.2083 644.125 97.125C646.083 101 647.062 106.396 647.062 113.312C647.062 116.771 646.875 120.312 646.5 123.938C646.125 127.521 645.625 130.688 645 133.438H616.812V142.188C616.812 149.688 617.438 154.979 618.688 158.062C619.979 161.146 622.417 162.688 626 162.688C627.958 162.688 629.729 161.854 631.312 160.188C632.896 158.479 633.688 155.354 633.688 150.812V147.062H646.688V151C646.688 159.167 644.729 165.125 640.812 168.875C636.938 172.583 631.312 174.438 623.938 174.438C616.521 174.438 610.833 171.604 606.875 165.938C602.917 160.271 600.938 151.042 600.938 138.25ZM632.312 122.812C632.396 121.896 632.458 120.521 632.5 118.688C632.542 116.812 632.562 115.312 632.562 114.188C632.562 108.479 631.958 104.396 630.75 101.938C629.542 99.4792 627.625 98.2292 625 98.1875C622.208 98.1875 620.146 99.6042 618.812 102.438C617.479 105.229 616.812 110.333 616.812 117.75V122.812H632.312ZM661.438 99.4375H654.125V87.4375H662.812L666 65.125H677.25V87.4375H691.625V99.4375H677.25V152.188C677.25 155.938 677.917 158.312 679.25 159.312C680.625 160.312 682.229 160.812 684.062 160.812C686.979 160.812 689.479 160.167 691.562 158.875V168.875C689.771 171.083 687.688 172.583 685.312 173.375C682.938 174.125 680.646 174.5 678.438 174.5C675.521 174.5 672.75 173.938 670.125 172.812C667.542 171.646 665.438 169.458 663.812 166.25C662.229 163 661.438 158.271 661.438 152.062V99.4375ZM697.438 138.25V122C697.438 115.417 698 109.958 699.125 105.625C700.25 101.292 701.729 97.8333 703.562 95.25C705.438 92.6667 707.479 90.75 709.688 89.5C711.938 88.25 714.167 87.4375 716.375 87.0625C718.583 86.6458 720.604 86.4375 722.438 86.4375C726.229 86.4375 729.729 87.25 732.938 88.875C736.146 90.4583 738.708 93.2083 740.625 97.125C742.583 101 743.562 106.396 743.562 113.312C743.562 116.771 743.375 120.312 743 123.938C742.625 127.521 742.125 130.688 741.5 133.438H713.312V142.188C713.312 149.688 713.938 154.979 715.188 158.062C716.479 161.146 718.917 162.688 722.5 162.688C724.458 162.688 726.229 161.854 727.812 160.188C729.396 158.479 730.188 155.354 730.188 150.812V147.062H743.188V151C743.188 159.167 741.229 165.125 737.312 168.875C733.438 172.583 727.812 174.438 720.438 174.438C713.021 174.438 707.333 171.604 703.375 165.938C699.417 160.271 697.438 151.042 697.438 138.25ZM728.812 122.812C728.896 121.896 728.958 120.521 729 118.688C729.042 116.812 729.062 115.312 729.062 114.188C729.062 108.479 728.458 104.396 727.25 101.938C726.042 99.4792 724.125 98.2292 721.5 98.1875C718.708 98.1875 716.646 99.6042 715.312 102.438C713.979 105.229 713.312 110.333 713.312 117.75V122.812H728.812ZM754.562 138.25V122C754.562 115.417 755.104 109.958 756.188 105.625C757.312 101.292 758.771 97.8333 760.562 95.25C762.354 92.6667 764.333 90.75 766.5 89.5C768.667 88.25 770.812 87.4375 772.938 87.0625C775.062 86.6458 777 86.4375 778.75 86.4375C784.583 86.4375 789.312 87.9792 792.938 91.0625C796.562 94.1458 798.375 98.9167 798.375 105.375C798.375 107.333 798.271 109.042 798.062 110.5C797.896 111.958 797.646 113.354 797.312 114.688H785.312V112C785.312 107.667 784.708 104.292 783.5 101.875C782.333 99.4167 780.583 98.1875 778.25 98.1875C775.708 98.1875 773.771 99.6042 772.438 102.438C771.104 105.229 770.438 110.333 770.438 117.75V142.188C770.438 149.688 771.021 154.979 772.188 158.062C773.396 161.146 775.542 162.688 778.625 162.688C780.208 162.688 781.708 161.854 783.125 160.188C784.583 158.479 785.312 155.354 785.312 150.812V147.062H798.125V151C798.125 159.167 796.375 165.125 792.875 168.875C789.375 172.583 784.042 174.438 776.875 174.438C769.625 174.438 764.083 171.604 760.25 165.938C756.458 160.271 754.562 151.042 754.562 138.25ZM811.938 99.4375H804.625V87.4375H813.312L816.5 65.125H827.75V87.4375H842.125V99.4375H827.75V152.188C827.75 155.938 828.417 158.312 829.75 159.312C831.125 160.312 832.729 160.812 834.562 160.812C837.479 160.812 839.979 160.167 842.062 158.875V168.875C840.271 171.083 838.188 172.583 835.812 173.375C833.438 174.125 831.146 174.5 828.938 174.5C826.021 174.5 823.25 173.938 820.625 172.812C818.042 171.646 815.938 169.458 814.312 166.25C812.729 163 811.938 158.271 811.938 152.062V99.4375Z" fill="#8F3D38"/>
</svg>
